<svg width="140" height="105" viewBox="0 0 140 105" fill="none" xmlns="http://www.w3.org/2000/svg">
<path d="M38.9568 1.64014C24.0595 6.51426 12.4568 16.8359 5.72432 31.0282C2.57297 37.9093 2 40.9198 2 52.675C2 65.147 2.42973 67.154 6.58378 75.7553C12.1703 87.0805 21.1946 95.8252 32.5108 101.129C39.5297 104.427 42.5378 105 54.2838 105C66.0297 105 69.0378 104.427 76.0568 101.129C87.373 95.8252 96.3973 87.0805 101.984 75.7553C106.138 67.154 106.568 65.147 106.568 52.675C106.568 40.203 106.138 38.196 101.984 29.5946C92.9595 11.245 76.773 0.923363 56.4324 0.0632259C49.4135 -0.223487 42.6811 0.493295 38.9568 1.64014ZM76.0568 5.65412C86.3703 10.3849 96.3973 20.4198 101.268 30.8848C104.562 37.9093 105.135 40.9198 105.135 52.675C105.135 64.4302 104.562 67.4407 101.268 74.4651C96.3973 84.9301 86.5135 94.8217 76.0568 99.6958C69.0378 102.993 66.0297 103.566 54.2838 103.566C42.5378 103.566 39.5297 102.993 32.5108 99.6958C22.0541 94.8217 12.1703 84.9301 7.3 74.4651C4.00541 67.4407 3.43243 64.4302 3.43243 52.675C3.43243 41.6365 4.00541 37.7659 6.58378 32.175C13.0297 18.1261 23.2 8.80796 37.5243 3.64713C48.2676 -0.223487 65.1703 0.636651 76.0568 5.65412Z" fill="white"/>
<path d="M104.5 52.5C104.5 80.6532 81.4561 103.5 53 103.5C24.5439 103.5 1.5 80.6532 1.5 52.5C1.5 24.3469 24.5439 1.5 53 1.5C81.4561 1.5 104.5 24.3469 104.5 52.5Z" stroke="white" stroke-width="3"/>
<path d="M139.568 54.5C139.568 82.3904 118.525 105 92.5676 105C66.6102 105 45.5676 82.3904 45.5676 54.5C45.5676 26.6096 66.6102 4 92.5676 4C118.525 4 139.568 26.6096 139.568 54.5Z" fill="white"/>
</svg>
