<svg width="324" height="354" viewBox="0 0 324 354" fill="none" xmlns="http://www.w3.org/2000/svg">
<path d="M194.5 39.3545C194.5 60.3496 178.52 77.2091 159 77.2091C139.48 77.2091 123.5 60.3496 123.5 39.3545C123.5 18.3595 139.48 1.5 159 1.5C178.52 1.5 194.5 18.3595 194.5 39.3545Z" stroke="white" stroke-width="3"/>
<path d="M159 352.5C180.349 352.5 197.5 334.12 197.5 311.645C197.5 289.171 180.349 270.791 159 270.791C137.651 270.791 120.5 289.171 120.5 311.645C120.5 334.12 137.651 352.5 159 352.5Z" stroke="white" stroke-width="3"/>
<ellipse cx="159" cy="311.645" rx="37" ry="39.3545" fill="white"/>
<path d="M321.5 119.127C321.5 140.122 305.52 156.982 286 156.982C266.48 156.982 250.5 140.122 250.5 119.127C250.5 98.1323 266.48 81.2727 286 81.2727C305.52 81.2727 321.5 98.1323 321.5 119.127Z" stroke="white" stroke-width="3"/>
<path d="M275.205 81.2506C257.205 87.3133 246.005 106.991 249.705 126.03C253.705 146.451 269.905 159.534 289.405 158.045C305.905 156.769 319.605 143.261 322.705 124.966C325.605 108.692 316.505 90.5042 301.805 83.0587C294.705 79.5487 282.805 78.6978 275.205 81.2506ZM302.305 84.6542C323.305 95.9287 328.805 125.817 313.205 144.218C306.805 151.77 298.505 156.131 289.205 156.875C285.105 157.194 281.705 157.194 281.705 156.875C281.705 156.556 283.305 155.492 285.205 154.429C291.705 151.238 297.505 144.643 301.405 136.241C304.805 128.795 305.105 127.519 305.105 118.903C305.105 110.288 304.805 109.011 301.405 101.566C297.505 93.1633 291.705 86.5687 285.205 83.3778C283.305 82.3142 281.705 81.2506 281.705 80.9315C281.705 80.6124 285.005 80.6124 289.005 80.8251C294.405 81.2506 297.705 82.1015 302.305 84.6542Z" fill="white"/>
<path d="M72.5 249.955C72.5 270.95 56.5203 287.809 37 287.809C17.4797 287.809 1.5 270.95 1.5 249.955C1.5 228.96 17.4797 212.1 37 212.1C56.5203 212.1 72.5 228.96 72.5 249.955Z" stroke="white" stroke-width="3"/>
<path d="M26.575 212.782C15.275 216.823 5.875 225.971 2.175 236.394C-0.725 244.478 -0.725 257.029 2.175 265.112C5.075 273.409 13.275 282.556 21.275 286.492C26.875 289.257 28.675 289.576 37.075 289.576C45.575 289.576 47.175 289.257 52.475 286.492C60.375 282.343 66.475 275.642 70.375 266.921C73.175 260.645 73.575 258.731 73.575 250.753C73.575 242.776 73.175 240.862 70.375 234.586C66.575 225.864 60.375 219.163 52.675 215.122C47.975 212.675 45.175 212.037 38.675 211.718C33.775 211.505 28.975 211.931 26.575 212.782ZM52.175 216.079C59.575 220.014 66.375 227.46 69.675 235.224C72.075 240.755 72.475 243.095 72.475 250.753C72.475 258.412 72.075 260.752 69.675 266.282C64.375 278.727 52.575 287.768 40.275 288.832C34.275 289.363 33.875 289.257 34.375 287.342C37.875 275.323 37.875 229.587 34.475 215.122L33.775 212.143L40.275 212.675C44.475 213.101 48.675 214.271 52.175 216.079Z" fill="white"/>
<path d="M72.5 118.064C72.5 139.059 56.5203 155.918 37 155.918C17.4797 155.918 1.5 139.059 1.5 118.064C1.5 97.0686 17.4797 80.2091 37 80.2091C56.5203 80.2091 72.5 97.0686 72.5 118.064Z" stroke="white" stroke-width="3"/>
<path d="M25.3 81.5653C18.7 84.118 12.7 88.4789 8.5 94.0098C5 98.5834 2 104.327 2 106.348C2 107.093 3.2 105.178 4.6 102.2C8 94.8607 14.6 87.9471 21.7 84.2243C26.5 81.778 28.7 81.3525 35.4 81.2462H43.5L46.7 86.9898C52.5 97.3071 54.4 105.178 54.4 119.005C54.4 132.833 52.5 140.703 46.7 151.021L43.5 156.764H35.4C28.7 156.658 26.5 156.233 21.7 153.786C14.6 150.063 7.9 143.043 4.6 135.704C3.2 132.726 2.1 130.918 2 131.875C2 134.747 9.4 146.022 13.8 149.638C21.3 156.02 26.4 157.828 37 157.828C45.2 157.828 47.3 157.403 52.2 154.956C60.1 151.021 66.4 144.533 70.3 136.13C73.2 129.748 73.5 128.259 73.5 119.005C73.5 109.752 73.2 108.263 70.3 101.881C66.4 93.478 60.1 86.8834 52.2 83.0543C44.6 79.3316 32.8 78.6934 25.3 81.5653Z" fill="white"/>
<path d="M321.5 249.955C321.5 270.95 305.52 287.809 286 287.809C266.48 287.809 250.5 270.95 250.5 249.955C250.5 228.96 266.48 212.1 286 212.1C305.52 212.1 321.5 228.96 321.5 249.955Z" stroke="white" stroke-width="3"/>
<path d="M274 212.19C267.7 214.636 260.3 220.061 257.1 224.528C255.7 226.442 253.3 230.91 251.8 234.313C249.5 239.738 249 242.078 249 249.736C249 257.713 249.4 259.628 252.2 265.903C256.1 274.625 262.2 281.326 270.1 285.474C275.4 288.24 277 288.559 285.5 288.559C293.9 288.559 295.7 288.24 301.3 285.474C305.6 283.347 309.3 280.475 312.9 276.221C319.9 268.137 322.5 261.117 322.5 249.736C322.5 238.355 319.9 231.335 312.9 223.251C305.7 214.955 298 211.232 287 210.701C281.1 210.381 277.7 210.807 274 212.19ZM288.1 213.253C284.7 225.272 284.7 274.412 288.2 286.325C288.7 288.24 288.3 288.346 282.3 287.814C270 286.751 258.2 277.71 252.9 265.265C250.5 259.841 250.1 257.394 250.1 249.736C250 242.078 250.5 239.738 252.8 234.313C255.6 228.038 260.4 221.762 265.8 217.614C270 214.423 278.4 211.551 283.8 211.445C287.9 211.445 288.6 211.658 288.1 213.253Z" fill="white"/>
</svg>
